<svg width="1000" height="700" xmlns="http://www.w3.org/2000/svg">

 <g>
  <title>Layer 1</title>
  <path id="svg_1" d="m0,0l1000,0l0,700l-1000,0l0,-700z" opacity="undefined" fill="#f7faf9"/>
  <rect stroke="#435e66" id="svg_3" stroke-width="2" fill="#eef2ee" height="38.334" width="588.80083" y="326.666" x="213.68427" class="corridor"/>
  <path stroke="#a8b7b7" id="svg_4" stroke-dasharray="8 10" stroke-width="2" fill="none" d="m220.0001,346.182l576.16914,0" class="corridor-line"/>
  <rect id="svg_5" stroke-width="2" stroke="#435e66" fill="#f1efc9" height="37.779" width="64" y="312.221" x="26" class="room"/>
  <rect id="svg_6" stroke-width="2" stroke="#435e66" fill="#f1efc9" height="37.667" width="64" y="350" x="26" class="room"/>
  <rect id="svg_7" stroke-width="2" stroke="#435e66" fill="#f1efc9" height="37.667" width="64" y="387.667" x="26" class="room"/>
  <rect stroke="#a85f4b" id="svg_9" stroke-width="2" fill="#f2e4dc" height="61.37402" width="50" y="265.29199" x="90" class="stairs"/>
  <rect stroke="#435e66" id="svg_10" stroke-width="2" fill="#eef2ee" height="75.33399" width="50" y="326.66601" x="90" class="lobby"/>
  <rect stroke="#435e66" id="svg_11" stroke-width="2" fill="#e4ead2" height="23.33399" width="50" y="402" x="90" class="facility"/>
  <rect id="svg_12" stroke-width="2" stroke="#2e7c70" fill="#dff0e9" height="61.111" width="63.333" y="265.555" x="140" class="restroom"/>
  <rect stroke="#435e66" id="svg_13" stroke-width="2" fill="#f1efc9" height="37" width="77.63155" y="365" x="213.68432" class="room"/>
  <rect stroke="#435e66" id="svg_14" stroke-width="2" fill="#f1efc9" height="37" width="78.68417" y="365" x="291.31584" class="room"/>
  <rect stroke="#435e66" id="svg_15" stroke-width="2" fill="#f1efc9" height="37" width="86.05261" y="365" x="368.94739" class="room"/>
  <rect stroke="#435e66" id="svg_16" stroke-width="2" fill="#f1efc9" height="32.223" width="124.73647" y="294.444" x="385" class="room"/>
  <rect id="svg_18" stroke-width="2" stroke="#a85f4b" fill="#f2e4dc" height="32.223" width="54.667" y="294.444" x="511.11" class="stairs"/>
  <rect id="svg_19" stroke-width="2" stroke="#435e66" fill="#eef2ee" height="37" width="110.555" y="365" x="455" class="lobby"/>
  <rect id="svg_20" stroke-width="2" stroke="#435e66" fill="#f1efc9" height="37.779" width="110.555" y="402" x="455" class="room"/>
  <rect stroke="#435e66" id="svg_21" stroke-width="2" fill="#f1efc9" height="36.667" width="87.84211" y="365" x="565.555" class="room"/>
  <rect id="svg_22" stroke-width="2" stroke="#317486" fill="#d8ebee" height="23.334" width="30" y="303.332" x="639.57794" class="elevator"/>
  <rect stroke="#435e66" id="svg_23" stroke-width="2" fill="#f1efc9" height="36.667" width="76.7608" y="365" x="653.3971" class="room"/>
  <rect stroke="#435e66" id="svg_24" stroke-width="2" fill="#f1efc9" height="36.667" width="72.82381" y="365" x="729.10528" class="room"/>
  <rect id="svg_26" stroke-width="2" stroke="#2e7c70" fill="#dff0e9" height="61.111" width="58.333" y="265.555" x="817.777" class="restroom"/>
  <rect stroke="#a85f4b" id="svg_27" stroke-width="2" fill="#f2e4dc" height="61.111" width="51.667" y="265.555" x="876.666" class="stairs"/>
  <rect stroke="#435e66" id="svg_28" stroke-width="2" fill="#eef2ee" height="75.33399" width="51.667" y="326.66601" x="876.666" class="lobby"/>
  <rect id="svg_30" stroke-width="2" stroke="#435e66" fill="#f1efc9" height="31.112" width="51.667" y="402" x="876.666" class="room"/>
  <rect id="svg_31" stroke-width="2" stroke="#435e66" fill="#f1efc9" height="61.557" width="61.223" y="309.999" x="928.333" class="room"/>
  <rect id="svg_32" stroke-width="2" stroke="#435e66" fill="#f1efc9" height="61.556" width="61.223" y="371.556" x="928.333" class="room"/>
  <path id="svg_35" d="m141.40422,326.666l71.57903,0l0,75.334l-71.57903,0l0,-75.334z" stroke="#435e66" stroke-width="2" fill="#eef2ee" class="lobby"/>
  <path id="svg_36" d="m803.51028,326.666l71.57903,0l0,75.334l-71.57903,0l0,-75.334z" stroke="#435e66" stroke-width="2" fill="#eef2ee" class="lobby"/>
 </g>
</svg>
