<svg xmlns="http://www.w3.org/2000/svg" viewBox="0 0 1000 700">
  <style>
    .background { fill: #f7faf9; }
    .outline { fill: #faf8ec; stroke: #294957; stroke-width: 5; stroke-linejoin: round; }
    .corridor, .lobby { fill: #eef2ee; stroke: #435e66; stroke-width: 2; }
    .room { fill: #f1efc9; stroke: #435e66; stroke-width: 2; }
    .facility { fill: #e4ead2; stroke: #435e66; stroke-width: 2; }
    .restroom { fill: #dff0e9; stroke: #2e7c70; stroke-width: 2; }
    .stairs { fill: #f2e4dc; stroke: #a85f4b; stroke-width: 2; }
    .elevator { fill: #d8ebee; stroke: #317486; stroke-width: 2; }
    .corridor-line { fill: none; stroke: #a8b7b7; stroke-width: 2; stroke-dasharray: 8 10; }
  </style>

  <rect class="background" width="1000" height="700" />
  <path class="outline" d="M26 312.221H90V265.555H203.333V326.667H385V294.444H647.999V303.333H677.999V326.667H727.777V303.333H783.333V265.555H927.77V309.999H989.556V433.112H928.333V433.112H876.666V401.667H565.555V439.779H455V397.223H140V425.334H26Z" />
  <rect class="corridor" x="140" y="326.666" width="737.222" height="38.334" />
  <path class="corridor-line" d="M140 346.182H877.222" />

  <rect class="room" x="26" y="312.221" width="64" height="37.779" />
  <rect class="room" x="26" y="350" width="64" height="37.667" />
  <rect class="room" x="26" y="387.667" width="64" height="37.667" />
  <rect class="facility" x="90" y="265.555" width="50" height="25" />
  <rect class="stairs" x="90" y="290.555" width="50" height="36.111" />
  <rect class="lobby" x="90" y="326.666" width="50" height="49.334" />
  <rect class="facility" x="90" y="376" width="50" height="49.334" />
  <rect class="restroom" x="140" y="265.555" width="63.333" height="61.111" />

  <rect class="room" x="140" y="365" width="105" height="32.223" />
  <rect class="room" x="245" y="365" width="105" height="32.223" />
  <rect class="room" x="350" y="365" width="105" height="32.223" />
  <rect class="room" x="385" y="294.444" width="70" height="32.223" />
  <rect class="facility" x="455" y="294.444" width="55" height="32.223" />
  <rect class="stairs" x="511.11" y="294.444" width="54.667" height="32.223" />
  <rect class="lobby" x="455" y="365" width="110.555" height="37" />
  <rect class="room" x="455" y="402" width="110.555" height="37.779" />

  <rect class="room" x="565.555" y="365" width="91" height="36.667" />
  <rect class="elevator" x="647.999" y="303.332" width="30" height="23.334" />
  <rect class="room" x="656.555" y="365" width="70.445" height="36.667" />
  <rect class="room" x="727" y="365" width="149.666" height="36.667" />
  <rect class="facility" x="783.333" y="303.332" width="34.444" height="23.334" />
  <rect class="restroom" x="817.777" y="265.555" width="58.333" height="61.111" />
  <rect class="stairs" x="876.666" y="265.555" width="51.667" height="61.111" />
  <rect class="lobby" x="876.666" y="326.666" width="51.667" height="35" />
  <rect class="lobby" x="876.666" y="361.666" width="51.667" height="35.334" />
  <rect class="room" x="876.666" y="397" width="51.667" height="36.112" />
  <rect class="room" x="928.333" y="309.999" width="61.223" height="61.557" />
  <rect class="room" x="928.333" y="371.556" width="61.223" height="61.556" />
</svg>
